<?xml version="1.0" encoding="iso-8859-1"?>
<!-- Generator: Adobe Illustrator 19.0.0, SVG Export Plug-In . SVG Version: 6.00 Build 0)  -->
<svg version="1.1" id="Capa_1" xmlns="http://www.w3.org/2000/svg" xmlns:xlink="http://www.w3.org/1999/xlink" x="0px" y="0px"
	 viewBox="0 0 512 512" style="enable-background:new 0 0 512 512;" xml:space="preserve">
<path style="fill:#F6A96C;" d="M421.064,329.929h-30.012V209.882h30.012c33.104,0,60.023,26.92,60.023,60.023
	S454.168,329.929,421.064,329.929z"/>
<path style="fill:#FFBD86;" d="M120.947,329.929H90.936c-33.104,0-60.023-26.92-60.023-60.023s26.92-60.023,60.023-60.023h30.012
	V329.929z"/>
<path style="fill:#FED2A4;" d="M421.064,269.905v75.029C421.064,435.869,346.937,512,256,512S90.936,435.869,90.936,344.935v-75.029
	l88.535-90.035h153.059L421.064,269.905z"/>
<path style="fill:#FFBD86;" d="M421.064,269.905v75.029C421.064,435.869,346.937,512,256,512V179.87h76.53L421.064,269.905z"/>
<path style="fill:#FF641A;" d="M320.824,382.449c-13.205,23.11-38.114,37.515-64.824,37.515s-51.619-14.405-64.824-37.515
	l25.81-15.006c8.102,13.806,23.108,22.509,39.015,22.509s30.913-8.702,39.015-22.509L320.824,382.449z"/>
<rect x="301.018" y="269.905" style="fill:#444444;" width="30.012" height="30.012"/>
<rect x="180.971" y="269.905" style="fill:#5A5A5A;" width="30.012" height="30.012"/>
<path style="fill:#FF4B00;" d="M295.014,367.444l25.81,15.006c-13.205,23.11-38.114,37.515-64.824,37.515v-30.012
	C271.907,389.952,286.913,381.249,295.014,367.444z"/>
<path style="fill:#FDBF00;" d="M391.053,98.537v-5.402c0-31.211-12.304-60.121-34.514-82.332L346.035,0l-10.503,10.804
	c-16.507,16.207-39.016,25.01-61.824,25.01h-77.731c-36.913,0-67.827,27.01-73.83,62.124c-18.006,6.001-31.211,22.808-31.211,42.917
	v129.05h15.006c36.315,0,66.625-25.81,73.529-60.023h153.059c6.904,34.213,37.215,60.023,73.529,60.023h15.006v-129.05
	C421.064,121.346,408.46,104.54,391.053,98.537z"/>
<path style="fill:#FF9F00;" d="M421.064,140.855v129.05h-15.006c-36.315,0-66.625-25.81-73.529-60.023H256V35.814h17.708
	c22.807,0,45.316-8.802,61.824-25.01L346.035,0l10.503,10.804c22.211,22.211,34.514,51.12,34.514,82.332v5.402
	C408.46,104.54,421.064,121.346,421.064,140.855z"/>
<g>
</g>
<g>
</g>
<g>
</g>
<g>
</g>
<g>
</g>
<g>
</g>
<g>
</g>
<g>
</g>
<g>
</g>
<g>
</g>
<g>
</g>
<g>
</g>
<g>
</g>
<g>
</g>
<g>
</g>
</svg>
